<svg width="20" height="20" viewBox="0 0 20 20" fill="none" xmlns="http://www.w3.org/2000/svg">
<path fill-rule="evenodd" clip-rule="evenodd" d="M4.52759 7.97203C4.52759 4.9494 6.97781 2.5 9.99958 2.5C13.0214 2.5 15.4717 4.9494 15.4717 7.97203L15.4725 9.07067C15.4725 9.72092 15.6152 10.3622 15.8924 10.9501L16.2808 11.7754C16.8743 13.037 15.9541 14.4876 14.5595 14.4876H5.43973C4.04518 14.4876 3.12493 13.037 3.71843 11.7754L4.10679 10.9501C4.38328 10.3622 4.52678 9.72092 4.52678 9.07067L4.52759 7.97203Z" stroke="#101828" stroke-width="1.5" stroke-linecap="round" stroke-linejoin="round"/>
<path d="M7.41699 14.917C7.41699 16.3432 8.57317 17.5002 9.99933 17.5002C11.4263 17.5002 12.5825 16.3432 12.5825 14.917" stroke="#101828" stroke-width="1.5" stroke-linecap="round" stroke-linejoin="round"/>
</svg>
