<svg width="24" height="24" viewBox="0 0 24 24" fill="none" xmlns="http://www.w3.org/2000/svg">
<path d="M12.9613 5.00195H15.0048C15.4101 5.00195 15.8678 5.30922 16.0219 5.68468L18.8882 12.7024C19.047 13.09 18.9451 13.5364 18.6332 13.8166L16.0275 16.1664C15.8444 16.3309 15.6072 16.4224 15.3616 16.4224H3.69556V14.0248C3.69556 12.3036 5.09089 10.9083 6.81216 10.9083H8.58014C9.35719 10.9083 10.067 11.3491 10.4116 12.0458L11.043 13.3244C11.2988 13.8409 11.8256 14.1678 12.4019 14.1678H13.3237C13.9448 14.1678 14.4585 13.6859 14.4967 13.0667L14.4332 8.86479C14.422 8.10642 15.0329 7.48627 15.7912 7.48627H16.7579" stroke="#78BC71" stroke-width="1.44" stroke-linecap="round" stroke-linejoin="round"/>
<path d="M10.1207 16.4255C10.1291 16.475 10.1291 16.5329 10.1291 16.5834C10.1291 17.9189 9.04196 18.9976 7.71481 18.9976C6.37833 18.9976 5.30054 17.9189 5.30054 16.5834C5.30054 16.5329 5.30054 16.475 5.30895 16.4255" stroke="#78BC71" stroke-width="1.44" stroke-linecap="round" stroke-linejoin="round"/>
<path d="M18.2117 14.2021C19.3735 14.3769 20.2692 15.3799 20.2692 16.5838C20.2692 17.9194 19.1821 18.998 17.855 18.998C16.5193 18.998 15.4407 17.9194 15.4407 16.5838" stroke="#78BC71" stroke-width="1.44" stroke-linecap="round" stroke-linejoin="round"/>
<path d="M17.8548 16.6L16.8489 15.427" stroke="#78BC71" stroke-width="1.44" stroke-linecap="round" stroke-linejoin="round"/>
<path d="M19.1458 12.8096C19.1458 12.8096 20.3589 12.9412 20.9753 13.8752" stroke="#78BC71" stroke-width="1.44" stroke-linecap="round" stroke-linejoin="round"/>
<path fill-rule="evenodd" clip-rule="evenodd" d="M19.8537 10.1672C18.9804 10.3681 17.8803 9.91228 17.6794 9.03903C17.4787 8.16578 18.2548 7.20568 19.128 7.00488C20.0442 7.90428 20.2861 8.95778 19.8537 10.1672Z" stroke="#78BC71" stroke-width="1.44" stroke-linecap="round" stroke-linejoin="round"/>
<path d="M5.36183 5.12809L8.89778 5.12061C9.92603 5.11781 10.5677 5.84256 10.5705 6.86992L10.577 9.14503C10.5789 10.1723 9.941 10.8999 8.91272 10.9027L5.37677 10.9092C4.34755 10.9121 3.70593 10.1873 3.70406 9.15997L3.69752 6.88485C3.69472 5.85751 4.33634 5.12995 5.36183 5.12809Z" stroke="#78BC71" stroke-width="1.44" stroke-linecap="round" stroke-linejoin="round"/>
<path d="M6.35059 7.18164H7.9243" stroke="#78BC71" stroke-width="1.44" stroke-linecap="round" stroke-linejoin="round"/>
</svg>
