<svg width="18" height="17" viewBox="0 0 18 17" fill="none" xmlns="http://www.w3.org/2000/svg">
<path d="M9.76682 3.62549H11.1903C11.4727 3.62549 11.7914 3.83952 11.8988 4.10106L13.8954 8.98951C14.006 9.25947 13.9351 9.57042 13.7178 9.76562L11.9027 11.4024C11.7752 11.517 11.6099 11.5807 11.4388 11.5807H3.3125V9.91067C3.3125 8.71166 4.28446 7.73974 5.48347 7.73974H6.71501C7.25628 7.73974 7.75071 8.04682 7.99078 8.53211L8.43059 9.42277C8.60881 9.78254 8.97573 10.0102 9.37716 10.0102H10.0193C10.4519 10.0102 10.8098 9.67454 10.8364 9.24322L10.7922 6.31627C10.7843 5.788 11.2099 5.35602 11.7381 5.35602H12.4115" stroke="#98A2B3" stroke-width="1.04487" stroke-linecap="round" stroke-linejoin="round"/>
<path d="M7.78733 11.5828C7.79315 11.6172 7.79315 11.6575 7.79315 11.6927C7.79315 12.623 7.0359 13.3744 6.11143 13.3744C5.18046 13.3744 4.42969 12.623 4.42969 11.6927C4.42969 11.6575 4.42969 11.6172 4.43555 11.5828" stroke="#98A2B3" stroke-width="1.04487" stroke-linecap="round" stroke-linejoin="round"/>
<path d="M13.4234 10.0339C14.2327 10.1556 14.8566 10.8543 14.8566 11.693C14.8566 12.6233 14.0994 13.3747 13.1749 13.3747C12.2445 13.3747 11.4932 12.6233 11.4932 11.693" stroke="#98A2B3" stroke-width="1.04487" stroke-linecap="round" stroke-linejoin="round"/>
<path d="M13.1743 11.7043L12.4736 10.8872" stroke="#98A2B3" stroke-width="1.04487" stroke-linecap="round" stroke-linejoin="round"/>
<path d="M14.0742 9.06421C14.0742 9.06421 14.9193 9.15589 15.3487 9.80649" stroke="#98A2B3" stroke-width="1.04487" stroke-linecap="round" stroke-linejoin="round"/>
<path fill-rule="evenodd" clip-rule="evenodd" d="M14.5671 7.22334C13.9588 7.36324 13.1924 7.04575 13.0525 6.43745C12.9127 5.82917 13.4533 5.16038 14.0616 5.02051C14.6998 5.64701 14.8683 6.38086 14.5671 7.22334Z" stroke="#98A2B3" stroke-width="1.04487" stroke-linecap="round" stroke-linejoin="round"/>
<path d="M4.47281 3.71322L6.93589 3.70801C7.65214 3.70606 8.09912 4.21091 8.10105 4.92654L8.1056 6.51135C8.10694 7.22695 7.66258 7.73377 6.94629 7.73571L4.48322 7.74026C3.76629 7.74226 3.31934 7.23738 3.31804 6.52175L3.31348 4.93695C3.31153 4.22132 3.75847 3.71452 4.47281 3.71322Z" stroke="#98A2B3" stroke-width="1.04487" stroke-linecap="round" stroke-linejoin="round"/>
<path d="M5.16211 5.1438H6.25833" stroke="#98A2B3" stroke-width="1.04487" stroke-linecap="round" stroke-linejoin="round"/>
</svg>
