<svg width="20" height="20" viewBox="0 0 20 20" fill="none" xmlns="http://www.w3.org/2000/svg">
<path d="M5.15867 4.12744H14.843C16.4808 4.12744 17.5001 5.28367 17.5001 6.91907V13.0837C17.5001 14.7199 16.4808 15.8753 14.8423 15.8753H5.15867C3.52082 15.8753 2.50244 14.7199 2.50244 13.0837V6.91907C2.50244 5.28367 3.52569 4.12744 5.15867 4.12744Z" stroke="#507D4B" stroke-width="1.5" stroke-linecap="round" stroke-linejoin="round"/>
<path d="M14.0027 15.8753C13.6354 14.878 13.8454 13.7153 14.6554 12.9134C15.4273 12.1407 16.5227 11.9161 17.4973 12.2307" stroke="#507D4B" stroke-width="1.5" stroke-linecap="round" stroke-linejoin="round"/>
<path d="M2.5 12.2307C3.4673 11.9161 4.57731 12.1407 5.3492 12.9134C6.15191 13.7153 6.36191 14.878 5.99461 15.8753" stroke="#507D4B" stroke-width="1.5" stroke-linecap="round" stroke-linejoin="round"/>
<path d="M5.98731 4.12451C6.37002 5.11451 6.15191 6.28452 5.35001 7.09371C4.57731 7.86642 3.46811 8.09101 2.5 7.77642" stroke="#507D4B" stroke-width="1.5" stroke-linecap="round" stroke-linejoin="round"/>
<path d="M14.0113 4.12451C13.6286 5.11451 13.8467 6.28452 14.6558 7.09371C15.4286 7.86642 16.5232 8.09101 17.4986 7.77642" stroke="#507D4B" stroke-width="1.5" stroke-linecap="round" stroke-linejoin="round"/>
<path fill-rule="evenodd" clip-rule="evenodd" d="M11.9082 10.0019C11.9082 8.9495 11.0543 8.0957 10.0019 8.0957C8.9495 8.0957 8.0957 8.9495 8.0957 10.0019C8.0957 11.0543 8.9495 11.9082 10.0019 11.9082C11.0543 11.9082 11.9082 11.0543 11.9082 10.0019Z" stroke="#507D4B" stroke-width="1.5" stroke-linecap="round" stroke-linejoin="round"/>
</svg>
