<svg width="20" height="20" viewBox="0 0 20 20" fill="none" xmlns="http://www.w3.org/2000/svg">
<path d="M12.1699 3.50323L12.8245 4.93107H14.936C15.5852 4.93107 16.1115 5.45738 16.1115 6.10661V6.97717C16.1115 7.42105 15.7517 7.78089 15.3078 7.78089H4.29201C3.84812 7.78089 3.48828 7.42105 3.48828 6.97717V6.10661C3.48828 5.45738 4.01459 4.93107 4.66383 4.93107H6.77536L7.42992 3.50323C7.62635 3.07475 8.05448 2.80005 8.52584 2.80005H11.074C11.5454 2.80005 11.9734 3.07475 12.1699 3.50323Z" stroke="#D92D20" stroke-width="1.44" stroke-linecap="round" stroke-linejoin="round"/>
<path d="M14.8807 7.84058V14.7892C14.8807 16.1208 13.8146 17.2004 12.4994 17.2004H7.10196C5.78683 17.2004 4.7207 16.1208 4.7207 14.7892V7.84058" stroke="#D92D20" stroke-width="1.44" stroke-linecap="round" stroke-linejoin="round"/>
<path d="M8.44727 10.6531V14.2598M11.1516 10.6531V14.2598" stroke="#D92D20" stroke-width="1.44" stroke-linecap="round" stroke-linejoin="round"/>
</svg>
