<svg width="16" height="17" viewBox="0 0 16 17" fill="none" xmlns="http://www.w3.org/2000/svg">
<path d="M3.56287 3.96576L3.03219 5.29246C2.84614 5.75787 2.74976 6.255 2.74916 6.7558L2.74123 11.5807C2.73757 13.0679 3.41281 14.12 4.90177 14.1237L11.8659 14.1335C13.3543 14.1372 14.0136 13.0892 14.0173 11.6021L14.0258 6.7686C14.0264 6.25927 13.9288 5.75421 13.7385 5.28209L13.2066 3.96149C12.9407 3.30027 12.299 2.86719 11.5859 2.86719H5.1848C4.47052 2.86719 3.8276 3.3021 3.56287 3.96576Z" stroke="#98A2B3" stroke-width="1.01875" stroke-linecap="round" stroke-linejoin="round"/>
<path d="M5.31445 11.3074H7.1926" stroke="#98A2B3" stroke-width="1.01875" stroke-linecap="round" stroke-linejoin="round"/>
<path d="M2.82812 5.99658H13.9401" stroke="#98A2B3" stroke-width="1.01875" stroke-linecap="round" stroke-linejoin="round"/>
<path d="M8.38281 5.99699V2.86719" stroke="#98A2B3" stroke-width="1.01875" stroke-linecap="round" stroke-linejoin="round"/>
</svg>
