<svg width="18" height="16" viewBox="0 0 18 16" fill="none" xmlns="http://www.w3.org/2000/svg">
<path d="M6.06635 0.0839302C6.59135 0.0998966 7.09969 0.191563 7.59219 0.359063H7.64135C7.67469 0.374897 7.69969 0.392397 7.71635 0.40823C7.90052 0.467397 8.07469 0.534063 8.24135 0.62573L8.55802 0.767397C8.68302 0.834063 8.83302 0.95823 8.91636 1.00906C8.99969 1.05823 9.09135 1.10906 9.16635 1.16656C10.0922 0.459063 11.2164 0.0757299 12.3747 0.0839302C12.9005 0.0839302 13.4255 0.15823 13.9247 0.32573C17.0005 1.32573 18.1089 4.70073 17.183 7.65073C16.658 9.15823 15.7997 10.5341 14.6755 11.6582C13.0664 13.2166 11.3005 14.5999 9.39969 15.7916L9.19135 15.9174L8.97469 15.7832C7.06719 14.5999 5.29135 13.2166 3.66719 11.6499C2.55052 10.5257 1.69135 9.15823 1.15802 7.65073C0.216355 4.70073 1.32469 1.32573 4.43386 0.30823C4.67552 0.224897 4.92469 0.166563 5.17469 0.134063H5.27469C5.50885 0.0998965 5.74135 0.0839302 5.97469 0.0839302H6.06635ZM13.4914 2.7174C13.1497 2.5999 12.7747 2.78406 12.6497 3.13406C12.533 3.48406 12.7164 3.8674 13.0664 3.99156C13.6005 4.19156 13.958 4.7174 13.958 5.2999V5.32573C13.9422 5.51656 13.9997 5.70073 14.1164 5.8424C14.233 5.98406 14.408 6.06656 14.5914 6.08406C14.933 6.0749 15.2247 5.80073 15.2497 5.4499V5.35073C15.2747 4.18323 14.5672 3.12573 13.4914 2.7174Z" fill="#FFCB00"/>
</svg>
