<svg width="18" height="20" viewBox="0 0 18 20" fill="none" xmlns="http://www.w3.org/2000/svg">
<path d="M6.63069 17.3095V14.7539C6.63067 14.1039 7.16061 13.5757 7.81718 13.5713H10.2222C10.882 13.5713 11.4168 14.1008 11.4168 14.7539V17.3175C11.4166 17.8694 11.8616 18.3204 12.4189 18.3334H14.0222C15.6206 18.3334 16.9163 17.0506 16.9163 15.4682V8.19822C16.9078 7.57571 16.6126 6.99114 16.1147 6.61088L10.6311 2.23777C9.67045 1.47633 8.30484 1.47633 7.34419 2.23777L1.8847 6.61882C1.38489 6.99754 1.08916 7.58308 1.08301 8.20615V15.4682C1.08301 17.0506 2.37874 18.3334 3.9771 18.3334H5.58048C6.15164 18.3334 6.61465 17.875 6.61465 17.3095" stroke="#475467" stroke-width="1.5" stroke-linecap="round" stroke-linejoin="round"/>
</svg>
