<svg width="16" height="18" viewBox="0 0 16 18" fill="none" xmlns="http://www.w3.org/2000/svg">
<path d="M5.61232 16.3112V13.7631C5.61232 13.1126 6.14348 12.5853 6.7987 12.5853H9.19384C9.50849 12.5853 9.81025 12.7094 10.0327 12.9303C10.2552 13.1512 10.3802 13.4507 10.3802 13.7631V16.3112C10.3782 16.5816 10.4851 16.8416 10.677 17.0336C10.8689 17.2255 11.13 17.3334 11.4025 17.3334H13.0365C13.7997 17.3354 14.5323 17.0358 15.0726 16.5008C15.613 15.9657 15.9167 15.2392 15.9167 14.4816V7.22246C15.9167 6.61046 15.6434 6.02995 15.1705 5.63731L9.61169 1.22997C8.64472 0.457216 7.25926 0.482166 6.32116 1.28923L0.889177 5.63731C0.39395 6.01837 0.0979602 6.60061 0.0833333 7.22246V14.4742C0.0833333 16.0533 1.37282 17.3334 2.96348 17.3334H4.56024C5.12602 17.3334 5.58583 16.8803 5.58993 16.3186L5.61232 16.3112Z" fill="#FFCB00"/>
</svg>
