<svg width="20" height="20" viewBox="0 0 20 20" fill="none" xmlns="http://www.w3.org/2000/svg">
<path d="M6.48513 2.5H13.5141C15.9708 2.5 17.5 4.23432 17.5 6.68865V13.3113C17.5 15.7657 15.9708 17.5 13.5133 17.5H6.48513C4.02837 17.5 2.5 15.7657 2.5 13.3113V6.68865C2.5 4.23432 4.03567 2.5 6.48513 2.5Z" stroke="#101828" stroke-width="1.5" stroke-linecap="round" stroke-linejoin="round"/>
<path d="M9.87009 7.35522C8.2582 7.35522 6.95117 8.66225 6.95117 10.2742C6.95117 11.886 8.2582 13.1931 9.87009 13.1931C11.482 13.1931 12.789 11.886 12.789 10.2742C12.789 8.66225 11.482 7.35522 9.87009 7.35522Z" stroke="#101828" stroke-width="1.5" stroke-linecap="round" stroke-linejoin="round"/>
<path d="M14.0556 6.13808V6.19558M14.2906 6.15059C14.2906 6.28143 14.1847 6.38725 14.0539 6.38725C13.9231 6.38725 13.8164 6.28143 13.8164 6.15059C13.8164 6.01976 13.9231 5.91309 14.0539 5.91309C14.1847 5.91309 14.2906 6.01976 14.2906 6.15059Z" stroke="#101828" stroke-width="1.5" stroke-linecap="round" stroke-linejoin="round"/>
</svg>
