<svg width="20" height="20" viewBox="0 0 20 20" fill="none" xmlns="http://www.w3.org/2000/svg">
<path d="M14.1131 16.5852L14.7463 16.8884C15.412 17.2071 16.1823 16.7214 16.1814 15.9827L16.1733 5.77077C16.1733 3.75188 15.0503 2.5 13.0348 2.5H6.9521C4.93159 2.5 3.83296 3.75188 3.83296 5.77077L3.81836 15.9812C3.81755 16.7198 4.58781 17.2062 5.25429 16.8868L5.88266 16.586C6.26049 16.4044 6.69751 16.3914 7.08589 16.5503L8.8745 17.2792C9.59534 17.5736 10.4037 17.5736 11.1245 17.2792L12.9098 16.5503C13.2983 16.3914 13.7353 16.4044 14.1131 16.5852Z" stroke="#101828" stroke-width="1.5" stroke-linecap="round" stroke-linejoin="round"/>
<path d="M9.54935 7.89722H13.0309M6.96875 7.89722H7.21442M9.54935 12.1048H13.0309M6.96875 12.1048H7.21442" stroke="#101828" stroke-width="1.5" stroke-linecap="round" stroke-linejoin="round"/>
</svg>
