<svg width="12" height="14" viewBox="0 0 12 14" fill="none" xmlns="http://www.w3.org/2000/svg">
<path d="M5.99563 0.333252C9.10408 0.333252 11.6667 2.81185 11.6667 5.87842C11.6667 7.42371 11.1047 8.85834 10.1797 10.0743C9.1592 11.4156 7.90144 12.5842 6.4857 13.5015C6.16167 13.7135 5.86925 13.7295 5.51363 13.5015C4.08982 12.5842 2.83206 11.4156 1.82033 10.0743C0.894656 8.85834 0.333333 7.42371 0.333333 5.87842C0.333333 2.81185 2.89592 0.333252 5.99563 0.333252ZM5.99563 4.18447C4.96777 4.18447 4.12949 5.03178 4.12949 6.05109C4.12949 7.07839 4.96777 7.88636 5.99563 7.88636C7.02416 7.88636 7.87051 7.07839 7.87051 6.05109C7.87051 5.03178 7.02416 4.18447 5.99563 4.18447Z" fill="#FFCB00"/>
</svg>
