<svg width="70" height="68" viewBox="0 0 70 68" fill="none" xmlns="http://www.w3.org/2000/svg">
<path d="M21.9791 0.752372C24.1841 0.819431 26.3191 1.20443 28.3876 1.90793H28.5941C28.7341 1.97443 28.8391 2.04793 28.9091 2.11443C29.6826 2.36293 30.4141 2.64293 31.1141 3.02793L32.4441 3.62293C32.9691 3.90293 33.5991 4.42443 33.9491 4.63793C34.2991 4.84443 34.6841 5.05793 34.9991 5.29943C38.8876 2.32793 43.6091 0.717931 48.4741 0.752372C50.6826 0.752372 52.8876 1.06443 54.9841 1.76793C67.9026 5.96793 72.5576 20.1429 68.6691 32.5329C66.4641 38.8644 62.8591 44.6429 58.1376 49.3644C51.3791 55.9094 43.9626 61.7194 35.9791 66.7244L35.1041 67.2529L34.1941 66.6894C26.1826 61.7194 18.7241 55.9094 11.9026 49.3294C7.21258 44.6079 3.60408 38.8644 1.36408 32.5329C-2.59092 20.1429 2.06408 5.96793 15.1226 1.69443C16.1376 1.34443 17.1841 1.09943 18.2341 0.962931H18.6541C19.6376 0.819431 20.6141 0.752372 21.5941 0.752372H21.9791ZM53.1641 11.8129C51.7291 11.3194 50.1541 12.0929 49.6291 13.5629C49.1391 15.0329 49.9091 16.6429 51.3791 17.1644C53.6226 18.0044 55.1241 20.2129 55.1241 22.6594V22.7679C55.0576 23.5694 55.2991 24.3429 55.7891 24.9379C56.2791 25.5329 57.0141 25.8794 57.7841 25.9529C59.2191 25.9144 60.4441 24.7629 60.5491 23.2894V22.8729C60.6541 17.9694 57.6826 13.5279 53.1641 11.8129Z" fill="#D0D5DD"/>
</svg>
