<svg width="85" height="84" viewBox="0 0 85 84" fill="none" xmlns="http://www.w3.org/2000/svg">
<path fill-rule="evenodd" clip-rule="evenodd" d="M51.6796 16.6958C52.2081 16.5243 52.7751 16.5208 53.3141 16.6923L56.6391 17.7773L56.6076 7.02881L48.2881 7.06031L48.3021 17.8053L51.6796 16.6958Z" fill="#D0D5DD"/>
<path fill-rule="evenodd" clip-rule="evenodd" d="M75.7141 20.7501C75.6791 12.5251 70.3941 6.99512 62.4841 6.99512H61.8541L61.8891 21.3801C61.8891 22.2201 61.5041 23.0251 60.8041 23.5151C60.1391 24.0051 59.2637 24.1451 58.4591 23.9001L52.5091 21.9401L46.4891 23.9351C46.2441 24.0051 45.9641 24.0401 45.6841 24.0401C45.1241 24.0401 44.5991 23.9001 44.1441 23.5501C43.4791 23.0601 43.0591 22.2901 43.0591 21.4501L43.0241 7.06512H42.3591C38.6137 7.06512 35.3939 8.32512 33.0139 10.7051C30.5289 13.1901 29.1639 16.7951 29.1989 20.8901L29.2339 30.2701C29.2339 30.4413 29.2649 30.6125 29.3157 30.7724C29.3919 31.0125 29.6346 31.1446 29.8865 31.1439L40.9591 31.1101H41.0641C45.6491 31.1101 49.8487 32.7901 52.8591 35.8C56.0791 38.95 57.8291 43.465 57.8291 48.435L57.8641 64.815C57.8641 66.1142 57.75 67.3906 57.5036 68.6261C57.4143 69.0741 57.7486 69.505 58.2057 69.505H62.5891C66.3341 69.505 69.5541 68.28 71.9341 65.9C74.3841 63.415 75.7491 59.81 75.7491 55.715L75.7141 20.7501Z" fill="#D0D5DD"/>
<path fill-rule="evenodd" clip-rule="evenodd" d="M31.7906 44.4803L34.1741 45.2678L34.1548 37.0806C34.1538 36.6942 33.84 36.3816 33.4536 36.3823L28.3991 36.3904C28.0125 36.3911 27.6996 36.705 27.7002 37.0914L27.7131 45.2923L30.1386 44.4838C30.6776 44.3018 31.2551 44.3053 31.7906 44.4803Z" fill="#D0D5DD"/>
<path fill-rule="evenodd" clip-rule="evenodd" d="M27.289 67.4491H20.919C19.47 67.4491 18.294 66.2731 18.294 64.8241C18.294 63.3751 19.47 62.1991 20.919 62.1991H27.289C28.738 62.1991 29.914 63.3751 29.914 64.8241C29.914 66.2731 28.738 67.4491 27.289 67.4491ZM49.178 39.5191C47.099 37.4576 44.285 36.3691 41.044 36.3691H40.9565L40.1028 36.3712C39.7161 36.3719 39.4032 36.6862 39.4042 37.073L39.434 48.8921C39.4375 49.7356 39.0315 50.5301 38.349 51.0236C37.6665 51.5206 36.781 51.6571 35.9865 51.3911L30.9745 49.7391L25.9205 51.4226C25.651 51.5136 25.371 51.5591 25.091 51.5591C24.5485 51.5591 24.0095 51.3911 23.558 51.0656C22.872 50.5721 22.466 49.7811 22.466 48.9376L22.4495 37.1013C22.4489 36.7146 22.1348 36.4013 21.748 36.4024L20.821 36.4041C17.5415 36.4041 14.7065 37.5066 12.624 39.5961C10.44 41.7871 9.24303 44.9686 9.25003 48.5526L9.28503 64.8976C9.30603 72.1391 13.9785 77.0041 20.9225 77.0041L41.0475 76.9341C44.341 76.9341 47.183 75.8281 49.2655 73.7386C51.4425 71.5546 52.636 68.3906 52.6255 64.8206L52.5905 48.4406C52.5835 44.8636 51.3725 41.6961 49.178 39.5191Z" fill="#D0D5DD"/>
</svg>
