<svg width="21" height="20" viewBox="0 0 21 20" fill="none" xmlns="http://www.w3.org/2000/svg">
<path fill-rule="evenodd" clip-rule="evenodd" d="M12.5189 3.97501C12.6448 3.93417 12.7798 3.93334 12.9081 3.97417L13.6998 4.23251L13.6923 1.67334L11.7114 1.68084L11.7148 4.23917L12.5189 3.97501Z" fill="#FFCB00"/>
<path fill-rule="evenodd" clip-rule="evenodd" d="M18.2417 4.94053C18.2334 2.98219 16.975 1.66553 15.0917 1.66553H14.9417L14.95 5.09053C14.95 5.29053 14.8584 5.48219 14.6917 5.59885C14.5334 5.71552 14.325 5.74886 14.1334 5.69053L12.7167 5.22386L11.2834 5.69886C11.225 5.71553 11.1584 5.72386 11.0917 5.72386C10.9584 5.72386 10.8334 5.69053 10.725 5.60719C10.5667 5.49053 10.4667 5.30719 10.4667 5.10719L10.4584 1.68219H10.3C9.40829 1.68219 8.64166 1.98219 8.07499 2.54886C7.48333 3.14053 7.15833 3.99886 7.16666 4.97386L7.17499 7.20719C7.17499 7.24794 7.18238 7.2887 7.19447 7.32678C7.21262 7.38396 7.27039 7.41541 7.33039 7.41523L9.9667 7.40719H9.9917C11.0834 7.40719 12.0833 7.80719 12.8 8.52383C13.5667 9.27383 13.9834 10.3488 13.9834 11.5322L13.9917 15.4322C13.9917 15.7415 13.9645 16.0454 13.9059 16.3396C13.8846 16.4462 13.9642 16.5488 14.073 16.5488H15.1167C16.0084 16.5488 16.775 16.2572 17.3417 15.6905C17.925 15.0988 18.25 14.2405 18.25 13.2655L18.2417 4.94053Z" fill="#FFCB00"/>
<path fill-rule="evenodd" clip-rule="evenodd" d="M7.78348 10.5907L8.35098 10.7782L8.34637 8.82885C8.34615 8.73685 8.27144 8.66243 8.17944 8.6626L6.97597 8.66451C6.88393 8.66468 6.80943 8.73943 6.80957 8.83143L6.81265 10.784L7.39015 10.5915C7.51848 10.5482 7.65598 10.549 7.78348 10.5907Z" fill="#FFCB00"/>
<path fill-rule="evenodd" clip-rule="evenodd" d="M6.712 16.0592H5.19533C4.85033 16.0592 4.57033 15.7792 4.57033 15.4342C4.57033 15.0892 4.85033 14.8092 5.19533 14.8092H6.712C7.057 14.8092 7.337 15.0892 7.337 15.4342C7.337 15.7792 7.057 16.0592 6.712 16.0592ZM11.9237 9.40918C11.4287 8.91835 10.7587 8.65918 9.98699 8.65918H9.96616L9.76291 8.65968C9.67082 8.65985 9.59632 8.73468 9.59657 8.82676L9.60366 11.6408C9.60449 11.8417 9.50782 12.0308 9.34532 12.1483C9.18282 12.2667 8.97199 12.2992 8.78282 12.2358L7.5895 11.8425L6.38617 12.2433C6.322 12.265 6.25533 12.2758 6.18867 12.2758C6.0595 12.2758 5.93117 12.2358 5.82367 12.1583C5.66033 12.0408 5.56367 11.8525 5.56367 11.6517L5.55973 8.83351C5.5596 8.74143 5.4848 8.66685 5.39271 8.6671L5.172 8.66751C4.39117 8.66751 3.71617 8.93001 3.22033 9.42751C2.70033 9.94918 2.41533 10.7067 2.417 11.56L2.42533 15.4517C2.43033 17.1758 3.54283 18.3342 5.19617 18.3342L9.98782 18.3175C10.772 18.3175 11.4487 18.0542 11.9445 17.5567C12.4628 17.0367 12.747 16.2833 12.7445 15.4333L12.7362 11.5333C12.7345 10.6817 12.4462 9.92751 11.9237 9.40918Z" fill="#FFCB00"/>
</svg>
