<svg width="21" height="20" viewBox="0 0 21 20" fill="none" xmlns="http://www.w3.org/2000/svg">
<path d="M5.17329 8.19894L9.96751 8.18922C11.4139 8.18598 12.3163 9.20433 12.3196 10.6492L12.3285 14.5482C12.3318 15.9931 11.435 17.0155 9.98776 17.0195L5.19437 17.0292C3.74792 17.0325 2.84633 16.0142 2.84227 14.5685L2.83335 10.6703C2.83011 9.22542 3.73171 8.20218 5.17329 8.19894Z" stroke="#475467" stroke-width="1.5" stroke-linecap="round" stroke-linejoin="round"/>
<path d="M9.98835 17.029L15.1182 17.0177C16.7965 17.0136 17.8376 15.8274 17.8335 14.1515L17.8222 5.82388C17.8189 4.14798 16.7722 2.96666 15.0947 2.97071L10.2956 2.98207C8.62295 2.98612 7.57702 4.17231 7.58108 5.84821L7.59162 8.0868" stroke="#475467" stroke-width="1.5" stroke-linecap="round" stroke-linejoin="round"/>
<path d="M5.19499 14.5483H6.71198" stroke="#475467" stroke-width="1.5" stroke-linecap="round" stroke-linejoin="round"/>
<path d="M8.97042 8.18921L8.97859 11.181L7.58805 10.7278L6.18863 11.1892L6.18457 8.20137" stroke="#475467" stroke-width="1.5" stroke-linecap="round" stroke-linejoin="round"/>
<path d="M14.3179 2.9707L14.3277 6.39791L12.7142 5.87252L11.0918 6.40764L11.0869 2.98529" stroke="#475467" stroke-width="1.5" stroke-linecap="round" stroke-linejoin="round"/>
</svg>
