<svg width="20" height="20" viewBox="0 0 20 20" fill="none" xmlns="http://www.w3.org/2000/svg">
<path fill-rule="evenodd" clip-rule="evenodd" d="M12.538 16.2451L11.9374 16.346C11.4981 16.4194 11.11 16.0534 11.1584 15.6106L11.2248 14.9907C11.2574 14.6918 11.3826 14.4109 11.5832 14.186L13.9466 11.5832C14.2559 11.2491 14.7775 11.229 15.111 11.5383L15.6631 12.0496C15.9973 12.3581 16.0174 12.8798 15.7081 13.214L13.373 15.785C13.1551 16.0292 12.8604 16.1911 12.538 16.2451Z" stroke="#101828" stroke-width="1.44" stroke-linecap="round" stroke-linejoin="round"/>
<path fill-rule="evenodd" clip-rule="evenodd" d="M11.7125 6.79652C11.7125 8.56146 10.2817 9.99298 8.51602 9.99298C6.75109 9.99298 5.32031 8.56146 5.32031 6.79652C5.32031 5.03157 6.75109 3.6001 8.51602 3.6001C10.2817 3.6001 11.7125 5.03157 11.7125 6.79652Z" stroke="#101828" stroke-width="1.44" stroke-linecap="round" stroke-linejoin="round"/>
<path d="M8.51727 12.3C5.8169 12.3 3.51367 12.7083 3.51367 14.3424C3.51367 15.9766 5.80375 16.3993 8.51727 16.3993" stroke="#101828" stroke-width="1.44" stroke-linecap="round" stroke-linejoin="round"/>
</svg>
