<svg width="20" height="16" viewBox="0 0 20 16" fill="none" xmlns="http://www.w3.org/2000/svg">
<path d="M11.5415 1.54175V3.55841" stroke="#507D4B" stroke-width="1.5" stroke-linecap="round" stroke-linejoin="round"/>
<path d="M11.5415 12.7998V14.4865" stroke="#507D4B" stroke-width="1.5" stroke-linecap="round" stroke-linejoin="round"/>
<path d="M11.5415 9.93693V5.91943" stroke="#507D4B" stroke-width="1.5" stroke-linecap="round" stroke-linejoin="round"/>
<path fill-rule="evenodd" clip-rule="evenodd" d="M15.5852 14.6666C17.1036 14.6666 18.3334 13.452 18.3334 11.9525V9.79212C17.3287 9.79212 16.5195 8.99301 16.5195 8.00078C16.5195 7.00855 17.3287 6.20858 18.3334 6.20858L18.3325 4.0473C18.3325 2.54779 17.1018 1.33325 15.5843 1.33325H4.41584C2.89832 1.33325 1.66762 2.54779 1.66762 4.0473L1.66675 6.27896C2.67148 6.27896 3.48065 7.00855 3.48065 8.00078C3.48065 8.99301 2.67148 9.79212 1.66675 9.79212V11.9525C1.66675 13.452 2.89658 14.6666 4.41497 14.6666H15.5852Z" stroke="#507D4B" stroke-width="1.5" stroke-linecap="round" stroke-linejoin="round"/>
</svg>
