<svg width="20" height="20" viewBox="0 0 20 20" fill="none" xmlns="http://www.w3.org/2000/svg">
<path fill-rule="evenodd" clip-rule="evenodd" d="M17.4868 4.97212C17.4844 3.79566 16.5949 2.74082 15.4403 2.54217C15.2036 2.50082 12.4267 2.50649 11.2778 2.5073C10.141 2.50812 9.17208 2.91676 8.36942 3.71782C6.66511 5.41887 4.96243 7.12155 3.26138 8.82583C2.25599 9.83367 2.24221 11.3807 3.24436 12.3917C4.69001 13.8512 6.14296 15.3033 7.60158 16.7489C8.61183 17.7502 10.1588 17.7373 11.1675 16.7311C12.8872 15.0162 14.6068 13.3014 16.3193 11.5793C16.9817 10.9128 17.3725 10.1077 17.4593 9.16642C17.529 8.414 17.4884 5.61671 17.4868 4.97212Z" stroke="#101828" stroke-width="1.5" stroke-linecap="round" stroke-linejoin="round"/>
<path fill-rule="evenodd" clip-rule="evenodd" d="M11.7442 6.92933C11.7474 7.65418 12.3531 8.25013 13.0852 8.2485C13.8125 8.24688 14.4182 7.6404 14.4141 6.91798C14.4092 6.16394 13.8125 5.57612 13.0536 5.57936C12.3336 5.58179 11.7409 6.19232 11.7442 6.92933Z" stroke="#101828" stroke-width="1.5" stroke-linecap="round" stroke-linejoin="round"/>
<path d="M6.70508 11.1426L8.85209 13.2896" stroke="#101828" stroke-width="1.5" stroke-linecap="round" stroke-linejoin="round"/>
</svg>
