<svg width="20" height="20" viewBox="0 0 20 20" fill="none" xmlns="http://www.w3.org/2000/svg">
<path fill-rule="evenodd" clip-rule="evenodd" d="M15.8029 9.9531C16.8545 10.562 17.4845 11.822 17.1358 13.176C16.8715 14.2049 16.004 15.0182 14.9612 15.2233C14.8064 15.2541 14.6532 15.2719 14.504 15.2784C13.7467 15.3109 13.1759 14.5909 13.3527 13.8539L14.1092 10.6909C14.2883 9.94335 15.138 9.56794 15.8029 9.9531Z" stroke="#101828" stroke-width="1.5" stroke-linecap="round" stroke-linejoin="round"/>
<path d="M9.5918 17.4781C11.5304 17.4781 12.9039 17.8763 14.2928 15.28" stroke="#101828" stroke-width="1.5" stroke-linecap="round" stroke-linejoin="round"/>
<path fill-rule="evenodd" clip-rule="evenodd" d="M4.1971 9.9531C3.14549 10.562 2.5155 11.822 2.86415 13.176C3.12847 14.2049 3.99603 15.0182 5.03871 15.2233C5.19358 15.2541 5.34682 15.2719 5.496 15.2784C6.25329 15.3109 6.82409 14.5909 6.64734 13.8539L5.89086 10.6909C5.71168 9.94335 4.86196 9.56794 4.1971 9.9531Z" stroke="#101828" stroke-width="1.5" stroke-linecap="round" stroke-linejoin="round"/>
<path d="M16.1255 10.1702V8.62725C16.1255 5.24375 13.3826 2.5 9.99828 2.5C6.61404 2.5 3.87109 5.24375 3.87109 8.62725V10.1702" stroke="#101828" stroke-width="1.5" stroke-linecap="round" stroke-linejoin="round"/>
</svg>
